<mxfile host="app.diagrams.net" agent="Mozilla/5.0 (Windows NT 10.0; Win64; x64) AppleWebKit/537.36 (KHTML, like Gecko) Chrome/131.0.0.0 Safari/537.36 Edg/131.0.0.0" version="25.0.1">
  <diagram name="Page-1" id="zhAkto89bIDaMqRJ-LTr">
    <mxGraphModel dx="1760" dy="372" grid="1" gridSize="10" guides="1" tooltips="1" connect="1" arrows="1" fold="1" page="1" pageScale="1" pageWidth="850" pageHeight="1100" math="0" shadow="0">
      <root>
        <mxCell id="0" />
        <mxCell id="1" parent="0" />
        <mxCell id="pe1t7OmNn8GMrvqhE_P7-25" value="" style="verticalLabelPosition=bottom;verticalAlign=top;html=1;shape=mxgraph.basic.patternFillRect;fillStyle=diag;step=5;fillStrokeWidth=0.2;fillStrokeColor=#dddddd;" vertex="1" parent="1">
          <mxGeometry x="150" y="370" width="550" height="90" as="geometry" />
        </mxCell>
        <mxCell id="pe1t7OmNn8GMrvqhE_P7-22" value="" style="rounded=0;whiteSpace=wrap;html=1;dotted=1" vertex="1" parent="1">
          <mxGeometry x="100" y="490" width="260" height="220" as="geometry" />
        </mxCell>
        <mxCell id="pe1t7OmNn8GMrvqhE_P7-1" value="Car Rental System" style="text;html=1;align=center;verticalAlign=middle;whiteSpace=wrap;rounded=0;" vertex="1" parent="1">
          <mxGeometry x="10" y="230" width="450" height="40" as="geometry" />
        </mxCell>
        <mxCell id="pe1t7OmNn8GMrvqhE_P7-2" value="Customer" style="rounded=0;whiteSpace=wrap;html=1;" vertex="1" parent="1">
          <mxGeometry x="40" y="280" width="120" height="60" as="geometry" />
        </mxCell>
        <mxCell id="pe1t7OmNn8GMrvqhE_P7-24" style="edgeStyle=orthogonalEdgeStyle;rounded=0;orthogonalLoop=1;jettySize=auto;html=1;" edge="1" parent="1" source="pe1t7OmNn8GMrvqhE_P7-3" target="pe1t7OmNn8GMrvqhE_P7-4">
          <mxGeometry relative="1" as="geometry" />
        </mxCell>
        <mxCell id="pe1t7OmNn8GMrvqhE_P7-3" value="Reservations" style="rounded=0;whiteSpace=wrap;html=1;" vertex="1" parent="1">
          <mxGeometry x="180" y="380" width="120" height="60" as="geometry" />
        </mxCell>
        <mxCell id="pe1t7OmNn8GMrvqhE_P7-14" style="edgeStyle=orthogonalEdgeStyle;rounded=0;orthogonalLoop=1;jettySize=auto;html=1;entryX=0.5;entryY=1;entryDx=0;entryDy=0;" edge="1" parent="1" source="pe1t7OmNn8GMrvqhE_P7-4" target="pe1t7OmNn8GMrvqhE_P7-13">
          <mxGeometry relative="1" as="geometry" />
        </mxCell>
        <mxCell id="pe1t7OmNn8GMrvqhE_P7-18" style="edgeStyle=orthogonalEdgeStyle;rounded=0;orthogonalLoop=1;jettySize=auto;html=1;entryX=0;entryY=0.5;entryDx=0;entryDy=0;" edge="1" parent="1" source="pe1t7OmNn8GMrvqhE_P7-4" target="pe1t7OmNn8GMrvqhE_P7-9">
          <mxGeometry relative="1" as="geometry" />
        </mxCell>
        <mxCell id="pe1t7OmNn8GMrvqhE_P7-4" value="Rentals" style="rounded=0;whiteSpace=wrap;html=1;" vertex="1" parent="1">
          <mxGeometry x="350" y="380" width="120" height="60" as="geometry" />
        </mxCell>
        <mxCell id="pe1t7OmNn8GMrvqhE_P7-7" style="edgeStyle=orthogonalEdgeStyle;rounded=0;orthogonalLoop=1;jettySize=auto;html=1;entryX=0.5;entryY=1;entryDx=0;entryDy=0;" edge="1" parent="1" source="pe1t7OmNn8GMrvqhE_P7-5" target="pe1t7OmNn8GMrvqhE_P7-4">
          <mxGeometry relative="1" as="geometry" />
        </mxCell>
        <mxCell id="pe1t7OmNn8GMrvqhE_P7-5" value="Vehicle" style="rounded=0;whiteSpace=wrap;html=1;" vertex="1" parent="1">
          <mxGeometry x="170" y="510" width="120" height="60" as="geometry" />
        </mxCell>
        <mxCell id="pe1t7OmNn8GMrvqhE_P7-9" value="Payments" style="rounded=0;whiteSpace=wrap;html=1;" vertex="1" parent="1">
          <mxGeometry x="550" y="380" width="120" height="60" as="geometry" />
        </mxCell>
        <mxCell id="pe1t7OmNn8GMrvqhE_P7-10" value="Maintenance Records" style="rounded=0;whiteSpace=wrap;html=1;" vertex="1" parent="1">
          <mxGeometry x="170" y="600" width="120" height="60" as="geometry" />
        </mxCell>
        <mxCell id="pe1t7OmNn8GMrvqhE_P7-12" value="" style="endArrow=classic;html=1;rounded=0;" edge="1" parent="1">
          <mxGeometry width="50" height="50" relative="1" as="geometry">
            <mxPoint x="220" y="600" as="sourcePoint" />
            <mxPoint x="220" y="570" as="targetPoint" />
          </mxGeometry>
        </mxCell>
        <mxCell id="pe1t7OmNn8GMrvqhE_P7-17" value="" style="edgeStyle=orthogonalEdgeStyle;rounded=0;orthogonalLoop=1;jettySize=auto;html=1;" edge="1" parent="1" source="pe1t7OmNn8GMrvqhE_P7-13" target="pe1t7OmNn8GMrvqhE_P7-2">
          <mxGeometry relative="1" as="geometry" />
        </mxCell>
        <mxCell id="pe1t7OmNn8GMrvqhE_P7-13" value="Invoices" style="rounded=0;whiteSpace=wrap;html=1;" vertex="1" parent="1">
          <mxGeometry x="240" y="280" width="120" height="60" as="geometry" />
        </mxCell>
        <mxCell id="pe1t7OmNn8GMrvqhE_P7-20" style="edgeStyle=orthogonalEdgeStyle;rounded=0;orthogonalLoop=1;jettySize=auto;html=1;" edge="1" parent="1" source="pe1t7OmNn8GMrvqhE_P7-19" target="pe1t7OmNn8GMrvqhE_P7-5">
          <mxGeometry relative="1" as="geometry" />
        </mxCell>
        <mxCell id="pe1t7OmNn8GMrvqhE_P7-19" value="location" style="rounded=0;whiteSpace=wrap;html=1;" vertex="1" parent="1">
          <mxGeometry x="-50" y="510" width="110" height="60" as="geometry" />
        </mxCell>
        <mxCell id="pe1t7OmNn8GMrvqhE_P7-23" style="edgeStyle=orthogonalEdgeStyle;rounded=0;orthogonalLoop=1;jettySize=auto;html=1;entryX=0.327;entryY=0.039;entryDx=0;entryDy=0;entryPerimeter=0;" edge="1" parent="1" source="pe1t7OmNn8GMrvqhE_P7-2" target="pe1t7OmNn8GMrvqhE_P7-5">
          <mxGeometry relative="1" as="geometry">
            <Array as="points">
              <mxPoint x="120" y="470" />
              <mxPoint x="209" y="470" />
            </Array>
          </mxGeometry>
        </mxCell>
      </root>
    </mxGraphModel>
  </diagram>
</mxfile>
